<mxfile host="app.diagrams.net" modified="2022-07-27T19:52:29.696Z" agent="5.0 (Windows)" etag="L7ysNvrqX_WbwBUYaROZ" version="20.2.2" type="github">
  <diagram id="C5RBs43oDa-KdzZeNtuy" name="Page-1">
    <mxGraphModel dx="1422" dy="752" grid="0" gridSize="10" guides="1" tooltips="1" connect="1" arrows="1" fold="1" page="1" pageScale="1" pageWidth="827" pageHeight="1169" background="none" math="0" shadow="0">
      <root>
        <mxCell id="WIyWlLk6GJQsqaUBKTNV-0" />
        <mxCell id="WIyWlLk6GJQsqaUBKTNV-1" parent="WIyWlLk6GJQsqaUBKTNV-0" />
        <mxCell id="GXekz5M9_yEbphmLaoE3-1" value="Get API Result" style="rounded=0;whiteSpace=wrap;html=1;fillColor=#fff2cc;strokeColor=#d6b656;" vertex="1" parent="WIyWlLk6GJQsqaUBKTNV-1">
          <mxGeometry x="220" y="180" width="120" height="60" as="geometry" />
        </mxCell>
        <mxCell id="GXekz5M9_yEbphmLaoE3-2" value="Async" style="text;html=1;strokeColor=none;fillColor=none;align=center;verticalAlign=middle;whiteSpace=wrap;rounded=0;" vertex="1" parent="WIyWlLk6GJQsqaUBKTNV-1">
          <mxGeometry x="250" y="150" width="60" height="30" as="geometry" />
        </mxCell>
        <mxCell id="GXekz5M9_yEbphmLaoE3-3" value="" style="endArrow=classic;html=1;rounded=0;entryX=0;entryY=0.5;entryDx=0;entryDy=0;exitX=1;exitY=0.5;exitDx=0;exitDy=0;" edge="1" parent="WIyWlLk6GJQsqaUBKTNV-1" source="GXekz5M9_yEbphmLaoE3-13" target="GXekz5M9_yEbphmLaoE3-1">
          <mxGeometry width="50" height="50" relative="1" as="geometry">
            <mxPoint x="174" y="213" as="sourcePoint" />
            <mxPoint x="438" y="359" as="targetPoint" />
            <Array as="points" />
          </mxGeometry>
        </mxCell>
        <mxCell id="GXekz5M9_yEbphmLaoE3-4" value="Render Pagination" style="rounded=0;whiteSpace=wrap;html=1;strokeWidth=3;fillColor=#d5e8d4;strokeColor=#82b366;fillStyle=hatch;" vertex="1" parent="WIyWlLk6GJQsqaUBKTNV-1">
          <mxGeometry x="534" y="90" width="120" height="60" as="geometry" />
        </mxCell>
        <mxCell id="GXekz5M9_yEbphmLaoE3-5" value="Render Results" style="rounded=0;whiteSpace=wrap;html=1;strokeWidth=4;fillStyle=hatch;fillColor=#d5e8d4;strokeColor=#82b366;" vertex="1" parent="WIyWlLk6GJQsqaUBKTNV-1">
          <mxGeometry x="371" y="184" width="120" height="60" as="geometry" />
        </mxCell>
        <mxCell id="GXekz5M9_yEbphmLaoE3-6" value="" style="endArrow=classic;html=1;rounded=0;exitX=0.992;exitY=0.617;exitDx=0;exitDy=0;exitPerimeter=0;entryX=0;entryY=0.5;entryDx=0;entryDy=0;" edge="1" parent="WIyWlLk6GJQsqaUBKTNV-1" source="GXekz5M9_yEbphmLaoE3-1" target="GXekz5M9_yEbphmLaoE3-5">
          <mxGeometry width="50" height="50" relative="1" as="geometry">
            <mxPoint x="388" y="409" as="sourcePoint" />
            <mxPoint x="438" y="359" as="targetPoint" />
          </mxGeometry>
        </mxCell>
        <mxCell id="GXekz5M9_yEbphmLaoE3-10" value="" style="endArrow=classic;html=1;rounded=0;exitX=1;exitY=0;exitDx=0;exitDy=0;entryX=0;entryY=1;entryDx=0;entryDy=0;" edge="1" parent="WIyWlLk6GJQsqaUBKTNV-1" source="GXekz5M9_yEbphmLaoE3-5" target="GXekz5M9_yEbphmLaoE3-4">
          <mxGeometry width="50" height="50" relative="1" as="geometry">
            <mxPoint x="388" y="409" as="sourcePoint" />
            <mxPoint x="438" y="359" as="targetPoint" />
          </mxGeometry>
        </mxCell>
        <mxCell id="GXekz5M9_yEbphmLaoE3-11" value="" style="endArrow=none;dashed=1;html=1;rounded=0;exitX=0.5;exitY=1;exitDx=0;exitDy=0;entryX=0.5;entryY=0;entryDx=0;entryDy=0;" edge="1" parent="WIyWlLk6GJQsqaUBKTNV-1" source="GXekz5M9_yEbphmLaoE3-4" target="GXekz5M9_yEbphmLaoE3-14">
          <mxGeometry width="50" height="50" relative="1" as="geometry">
            <mxPoint x="388" y="409" as="sourcePoint" />
            <mxPoint x="438" y="359" as="targetPoint" />
          </mxGeometry>
        </mxCell>
        <mxCell id="GXekz5M9_yEbphmLaoE3-12" value="" style="endArrow=classic;html=1;rounded=0;entryX=1;entryY=1;entryDx=0;entryDy=0;" edge="1" parent="WIyWlLk6GJQsqaUBKTNV-1" source="GXekz5M9_yEbphmLaoE3-14" target="GXekz5M9_yEbphmLaoE3-5">
          <mxGeometry width="50" height="50" relative="1" as="geometry">
            <mxPoint x="388" y="409" as="sourcePoint" />
            <mxPoint x="438" y="359" as="targetPoint" />
          </mxGeometry>
        </mxCell>
        <mxCell id="GXekz5M9_yEbphmLaoE3-13" value="User searches movies/clicks on nav buttons" style="ellipse;whiteSpace=wrap;html=1;fillStyle=auto;strokeWidth=3;fillColor=#dae8fc;strokeColor=#6c8ebf;" vertex="1" parent="WIyWlLk6GJQsqaUBKTNV-1">
          <mxGeometry x="26" y="168" width="120" height="80" as="geometry" />
        </mxCell>
        <mxCell id="GXekz5M9_yEbphmLaoE3-14" value="User Click Pagination" style="ellipse;whiteSpace=wrap;html=1;fillStyle=auto;strokeWidth=3;fillColor=#dae8fc;strokeColor=#6c8ebf;" vertex="1" parent="WIyWlLk6GJQsqaUBKTNV-1">
          <mxGeometry x="536" y="256" width="120" height="80" as="geometry" />
        </mxCell>
        <mxCell id="GXekz5M9_yEbphmLaoE3-15" value="User clicks on Movie" style="ellipse;whiteSpace=wrap;html=1;fillStyle=auto;strokeWidth=3;fillColor=#dae8fc;strokeColor=#6c8ebf;" vertex="1" parent="WIyWlLk6GJQsqaUBKTNV-1">
          <mxGeometry x="21" y="374" width="120" height="80" as="geometry" />
        </mxCell>
        <mxCell id="GXekz5M9_yEbphmLaoE3-16" value="&lt;div&gt;Get movie from API&lt;/div&gt;" style="rounded=0;whiteSpace=wrap;html=1;fillStyle=auto;strokeWidth=1;fillColor=#fff2cc;strokeColor=#d6b656;" vertex="1" parent="WIyWlLk6GJQsqaUBKTNV-1">
          <mxGeometry x="256" y="384" width="120" height="60" as="geometry" />
        </mxCell>
        <mxCell id="GXekz5M9_yEbphmLaoE3-17" value="Async" style="text;html=1;strokeColor=none;fillColor=none;align=center;verticalAlign=middle;whiteSpace=wrap;rounded=0;fillStyle=auto;" vertex="1" parent="WIyWlLk6GJQsqaUBKTNV-1">
          <mxGeometry x="286" y="349" width="60" height="30" as="geometry" />
        </mxCell>
        <mxCell id="GXekz5M9_yEbphmLaoE3-18" value="" style="endArrow=classic;html=1;rounded=0;exitX=1;exitY=0.5;exitDx=0;exitDy=0;entryX=0;entryY=0.5;entryDx=0;entryDy=0;" edge="1" parent="WIyWlLk6GJQsqaUBKTNV-1" source="GXekz5M9_yEbphmLaoE3-15" target="GXekz5M9_yEbphmLaoE3-16">
          <mxGeometry width="50" height="50" relative="1" as="geometry">
            <mxPoint x="388" y="379" as="sourcePoint" />
            <mxPoint x="438" y="329" as="targetPoint" />
          </mxGeometry>
        </mxCell>
        <mxCell id="GXekz5M9_yEbphmLaoE3-19" value="Show Overlay" style="text;html=1;strokeColor=none;fillColor=none;align=center;verticalAlign=middle;whiteSpace=wrap;rounded=0;fillStyle=auto;" vertex="1" parent="WIyWlLk6GJQsqaUBKTNV-1">
          <mxGeometry x="382.5" y="384" width="97" height="30" as="geometry" />
        </mxCell>
        <mxCell id="GXekz5M9_yEbphmLaoE3-20" value="Render Movie" style="rounded=0;whiteSpace=wrap;html=1;fillStyle=hatch;strokeWidth=3;fillColor=#d5e8d4;strokeColor=#82b366;" vertex="1" parent="WIyWlLk6GJQsqaUBKTNV-1">
          <mxGeometry x="483" y="384" width="120" height="60" as="geometry" />
        </mxCell>
        <mxCell id="GXekz5M9_yEbphmLaoE3-21" value="" style="endArrow=classic;html=1;rounded=0;exitX=1;exitY=0.5;exitDx=0;exitDy=0;entryX=0;entryY=0.5;entryDx=0;entryDy=0;" edge="1" parent="WIyWlLk6GJQsqaUBKTNV-1" source="GXekz5M9_yEbphmLaoE3-16" target="GXekz5M9_yEbphmLaoE3-20">
          <mxGeometry width="50" height="50" relative="1" as="geometry">
            <mxPoint x="388" y="379" as="sourcePoint" />
            <mxPoint x="438" y="329" as="targetPoint" />
          </mxGeometry>
        </mxCell>
      </root>
    </mxGraphModel>
  </diagram>
</mxfile>
